{"title":"The.Commuter.2018.720p.HDRip.x264.AAC.Eng.LLG","magnet":"magnet:?xt=urn:btih:bbd3441b8d280e6134963a64a263fe1c91ef4336&dn=The.Commuter.2018.720p.HDRip.x264.AAC.Eng.LLG&tr=udp%3A%2F%2Ftracker.leechers-paradise.org%3A6969&tr=udp%3A%2F%2Fzer0day.ch%3A1337&tr=udp%3A%2F%2Fopen.demonii.com%3A1337&tr=udp%3A%2F%2Ftracker.coppersurfer.tk%3A6969&tr=udp%3A%2F%2Fexodus.desync.com%3A6969","uploader":"LifeLongg","categoryP":"video","categoryS":"movies","size":"1648014650","seeders":"30","leechers":"87","description":"******************************Screenshots:********************\r\n <a href=\"\nhttp://picserver4u.com/d/0181.html\" rel=\"nofollow\" target=\"_NEW\">\nhttp://picserver4u.com/d/0181.html</a>\r\n <a href=\"\nhttp://picserver4u.com/d/0182.html\" rel=\"nofollow\" target=\"_NEW\">\nhttp://picserver4u.com/d/0182.html</a>\r\n <a href=\"\nhttp://picserver4u.com/d/0183.html\" rel=\"nofollow\" target=\"_NEW\">\nhttp://picserver4u.com/d/0183.html</a>\r\n <a href=\"\nhttp://picserver4u.com/d/0184.html\" rel=\"nofollow\" target=\"_NEW\">\nhttp://picserver4u.com/d/0184.html</a>\r\n <a href=\"\nhttp://picserver4u.com/d/0185.html\" rel=\"nofollow\" target=\"_NEW\">\nhttp://picserver4u.com/d/0185.html</a>\r\n\r\n************************************************************** \r\n\r\nComplete name                            : The.Commuter.2018.720p.HDRip.x264.AAC.Eng.LLG\r\nFormat                                   : MPEG-4\r\nFormat profile                           : Base Media\r\nCodec ID                                 : isom (isom/iso2/avc1/mp41)\r\nFile size                                : 1.51 GiB\r\nDuration                                 : 1 h 44 min\r\nOverall bit rate                         : 2 054 kb/s\r\nWriting application                      : Lavf57.56.101\r\n\r\nVideo\r\nID                                       : 1\r\nFormat                                   : AVC\r\nFormat/Info                              : Advanced Video Codec\r\nFormat profile                           : <a href=\"/cdn-cgi/l/email-protection\" class=\"__cf_email__\" data-cfemail=\"a6eecfc1cee6ea958897\">[email&#xA0;protected]</a>\r\nFormat settings                          : CABAC / 4 Ref Frames\r\nFormat settings, CABAC                   : Yes\r\nFormat settings, RefFrames               : 4 frames\r\nCodec ID                                 : avc1\r\nCodec ID/Info                            : Advanced Video Coding\r\nDuration                                 : 1 h 44 min\r\nBit rate                                 : 2 000 kb/s\r\nWidth                                    : 1 280 pixels\r\nHeight                                   : 536 pixels\r\nDisplay aspect ratio                     : 2.40:1\r\nFrame rate mode                          : Constant\r\nFrame rate                               : 29.970 (29970/1000) FPS\r\nColor space                              : YUV\r\nChroma subsampling                       : 4:2:0\r\nBit depth                                : 8 bits\r\nScan type                                : Progressive\r\nBits/(Pixel*Frame)                       : 0.097\r\nStream size                              : 1.45 GiB (96%)\r\n\r\nAudio\r\nID                                       : 2\r\nFormat                                   : AAC\r\nFormat/Info                              : Advanced Audio Codec\r\nFormat profile                           : LC\r\nCodec ID                                 : mp4a-40-2\r\nDuration                                 : 1 h 44 min\r\nBit rate mode                            : Constant\r\nBit rate                                 : 64.5 kb/s\r\nChannel(s)                               : 2 channels\r\nChannel positions                        : Front: L R\r\nSampling rate                            : 48.0 kHz\r\nFrame rate                               : 46.875 FPS (1024 SPF)\r\nCompression mode                         : Lossy\r\nStream size                              : 48.5 MiB (3%)\r\nLanguage                                 : English\r\nDefault                                  : Yes\r\nAlternate group                          : 1","last_updated":"2018-03-29T12:21:41.816Z","parsed":{"xt":"urn:btih:bbd3441b8d280e6134963a64a263fe1c91ef4336","dn":"The.Commuter.2018.720p.HDRip.x264.AAC.Eng.LLG","tr":["udp://exodus.desync.com:6969","udp://open.demonii.com:1337","udp://tracker.coppersurfer.tk:6969","udp://tracker.leechers-paradise.org:6969","udp://zer0day.ch:1337"],"infoHash":"bbd3441b8d280e6134963a64a263fe1c91ef4336","infoHashBuffer":{"type":"Buffer","data":[187,211,68,27,141,40,14,97,52,150,58,100,162,99,254,28,145,239,67,54]},"name":"The.Commuter.2018.720p.HDRip.x264.AAC.Eng.LLG","announce":["udp://exodus.desync.com:6969","udp://open.demonii.com:1337","udp://tracker.coppersurfer.tk:6969","udp://tracker.leechers-paradise.org:6969","udp://zer0day.ch:1337"],"urlList":[]}}